# xmcd CD database file
#
# Track frame offsets:
#	150
#	15185
#	41237
#	67927
#	95645
#	121672
#	158175
#	190342
#	215265
#	243360
#
# Disc length: 3521 seconds
#
# Revision: 0
# Processed by: cddbd v1.5PL3 Copyright (c) Steve Scherf et al.
# Submitted via: CDex 1.50
#
DISCID=7b0dbf0a
DTITLE=The Boilermaker Jazz Band - Honky Tonk Town
DYEAR=1997
DGENRE=Jazz
TTITLE0=Meet You There
TTITLE1=Coquette
TTITLE2=Over in Glory Land
TTITLE3=Trust in Me
TTITLE4=When We Danced at the Mardi Gras
TTITLE5=Lonesome Blues
TTITLE6=Honky Tonk Town
TTITLE7=My Sweet Southeren Belle
TTITLE8=You Always Hurt the One You Love
TTITLE9=Whinin' Boy Blues
EXTD=YEAR: 1997
EXTT0=
EXTT1=
EXTT2=
EXTT3=
EXTT4=
EXTT5=
EXTT6=
EXTT7=
EXTT8=
EXTT9=
PLAYORDER=
